BoPoMoFont_Black.ufo
<glyph name="A" format="2">
  <advance width="775"/>
  <unicode hex="0041"/>
  <outline>
    <contour>
      <point x="502" y="711" type="line"/>
      <point x="275" y="711" type="line"/>
      <point x="5" y="0" type="line"/>
      <point x="207" y="0" type="line"/>
      <point x="253" y="136" type="line"/>
      <point x="519" y="136" type="line"/>
      <point x="566" y="0" type="line"/>
      <point x="770" y="0" type="line"/>
    </contour>
    <contour>
      <point x="386" y="517" type="line"/>
      <point x="459" y="307" type="line"/>
      <point x="313" y="307" type="line"/>
    </contour>
  </outline>
</glyph>
<glyph name="B" format="2">
  <advance width="683"/>
  <unicode hex="0042"/>
  <outline>
    <contour>
      <point x="50" y="709" type="line"/>
      <point x="50" y="0" type="line"/>
      <point x="387" y="0" type="line" smooth="yes"/>
      <point x="575" y="0"/>
      <point x="658" y="78"/>
      <point x="658" y="204" type="curve" smooth="yes"/>
      <point x="658" y="273"/>
      <point x="612" y="333"/>
      <point x="549" y="356" type="curve"/>
      <point x="605" y="384"/>
      <point x="644" y="437"/>
      <point x="644" y="506" type="curve" smooth="yes"/>
      <point x="644" y="631"/>
      <point x="559" y="709"/>
      <point x="369" y="709" type="curve" smooth="yes"/>
    </contour>
    <contour>
      <point x="376" y="278" type="line" smooth="yes"/>
      <point x="431" y="278"/>
      <point x="460" y="257"/>
      <point x="460" y="217" type="curve" smooth="yes"/>
      <point x="460" y="176"/>
      <point x="431" y="156"/>
      <point x="376" y="156" type="curve" smooth="yes"/>
      <point x="243" y="157" type="line"/>
      <point x="243" y="278" type="line"/>
    </contour>
    <contour>
      <point x="365" y="552" type="line" smooth="yes"/>
      <point x="417" y="552"/>
      <point x="444" y="532"/>
      <point x="444" y="494" type="curve" smooth="yes"/>
      <point x="444" y="454"/>
      <point x="417" y="434"/>
      <point x="364" y="434" type="curve" smooth="yes"/>
      <point x="243" y="434" type="line"/>
      <point x="243" y="552" type="line"/>
    </contour>
  </outline>
</glyph>
<glyph name="C" format="2">
  <advance width="605"/>
  <unicode hex="0043"/>
  <outline>
    <contour>
      <point x="383" y="656" type="line"/>
      <point x="179" y="656"/>
      <point x="35" y="515"/>
      <point x="35" y="315" type="curve" smooth="yes"/>
      <point x="35" y="115"/>
      <point x="179" y="-26"/>
      <point x="383" y="-26" type="curve"/>
      <point x="570" y="-26" type="line"/>
      <point x="570" y="145" type="line"/>
      <point x="380" y="145" type="line"/>
      <point x="299" y="145"/>
      <point x="221" y="203"/>
      <point x="221" y="315" type="curve" smooth="yes"/>
      <point x="221" y="416"/>
      <point x="289" y="485"/>
      <point x="380" y="485" type="curve"/>
      <point x="564" y="485" type="line"/>
      <point x="564" y="656" type="line"/>
    </contour>
  </outline>
</glyph>
<glyph name="D" format="2">
  <advance width="758"/>
  <unicode hex="0044"/>
  <outline>
    <contour>
      <point x="364" y="711" type="curve" smooth="yes"/>
      <point x="50" y="711" type="line"/>
      <point x="50" y="0" type="line"/>
      <point x="364" y="0" type="line" smooth="yes"/>
      <point x="586" y="0"/>
      <point x="733" y="141"/>
      <point x="733" y="356" type="curve" smooth="yes"/>
      <point x="733" y="570"/>
      <point x="586" y="711"/>
    </contour>
    <contour>
      <point x="359" y="534" type="line" smooth="yes"/>
      <point x="476" y="534"/>
      <point x="532" y="460"/>
      <point x="532" y="356" type="curve" smooth="yes"/>
      <point x="532" y="253"/>
      <point x="476" y="177"/>
      <point x="359" y="177" type="curve" smooth="yes"/>
      <point x="243" y="177" type="line"/>
      <point x="243" y="534" type="line"/>
    </contour>
  </outline>
</glyph>
<glyph name="E" format="2">
  <advance width="635"/>
  <unicode hex="0045"/>
  <outline>
    <contour>
      <point x="595" y="171" type="line"/>
      <point x="243" y="171" type="line"/>
      <point x="243" y="273" type="line"/>
      <point x="569" y="273" type="line"/>
      <point x="569" y="445" type="line"/>
      <point x="243" y="445" type="line"/>
      <point x="243" y="538" type="line"/>
      <point x="595" y="538" type="line"/>
      <point x="595" y="710" type="line"/>
      <point x="50" y="710" type="line"/>
      <point x="50" y="0" type="line"/>
      <point x="595" y="0" type="line"/>
    </contour>
  </outline>
</glyph>
<glyph name="F" format="2">
  <advance width="622"/>
  <unicode hex="0046"/>
  <outline>
    <contour>
      <point x="567" y="424" type="line"/>
      <point x="240" y="424" type="line"/>
      <point x="240" y="531" type="line"/>
      <point x="592" y="531" type="line"/>
      <point x="592" y="700" type="line"/>
      <point x="50" y="700" type="line"/>
      <point x="50" y="0" type="line"/>
      <point x="240" y="0" type="line"/>
      <point x="240" y="255" type="line"/>
      <point x="567" y="255" type="line"/>
    </contour>
  </outline>
</glyph>
<glyph name="G" format="2">
  <advance width="824"/>
  <unicode hex="0047"/>
  <outline>
    <contour>
      <point x="641" y="84" type="line"/>
      <point x="641" y="83" type="line" smooth="yes"/>
      <point x="641" y="32"/>
      <point x="732" y="0"/>
      <point x="780" y="0" type="curve" smooth="yes"/>
      <point x="794" y="0" type="line"/>
      <point x="794" y="154" type="line"/>
      <point x="790" y="154" type="line" smooth="yes"/>
      <point x="758" y="154"/>
      <point x="738" y="176"/>
      <point x="738" y="206" type="curve" smooth="yes"/>
      <point x="738" y="324" type="line" smooth="yes"/>
      <point x="738" y="385"/>
      <point x="739" y="403" type="qcurve"/>
      <point x="636" y="403" type="line"/>
    </contour>
    <contour>
      <point x="641" y="84" type="line"/>
      <point x="641" y="84" type="line"/>
    </contour>
    <contour>
      <point x="400" y="715" type="curve" smooth="yes"/>
      <point x="180" y="715"/>
      <point x="25" y="565"/>
      <point x="25" y="352" type="curve" smooth="yes"/>
      <point x="25" y="140"/>
      <point x="180" y="-10"/>
      <point x="400" y="-10" type="curve" smooth="yes"/>
      <point x="565" y="-10"/>
      <point x="738" y="107"/>
      <point x="738" y="340" type="curve" smooth="yes"/>
      <point x="738" y="360"/>
      <point x="737" y="381"/>
      <point x="734" y="403" type="curve"/>
      <point x="386" y="403" type="line"/>
      <point x="386" y="264" type="line"/>
      <point x="550" y="264" type="line"/>
      <point x="530" y="196"/>
      <point x="480" y="161"/>
      <point x="392" y="161" type="curve" smooth="yes"/>
      <point x="302" y="161"/>
      <point x="220" y="225"/>
      <point x="220" y="352" type="curve" smooth="yes"/>
      <point x="220" y="462"/>
      <point x="290" y="538"/>
      <point x="389" y="538" type="curve" smooth="yes"/>
      <point x="448" y="538"/>
      <point x="491" y="517"/>
      <point x="522" y="486" type="curve"/>
      <point x="656" y="618" type="line"/>
      <point x="597" y="679"/>
      <point x="511" y="715"/>
    </contour>
  </outline>
</glyph>
<glyph name="H" format="2">
  <advance width="739"/>
  <unicode hex="0048"/>
  <outline>
    <contour>
      <point x="240" y="700" type="line"/>
      <point x="50" y="700" type="line"/>
      <point x="50" y="0" type="line"/>
      <point x="240" y="0" type="line"/>
      <point x="240" y="267" type="line"/>
      <point x="499" y="267" type="line"/>
      <point x="499" y="0" type="line"/>
      <point x="689" y="0" type="line"/>
      <point x="689" y="700" type="line"/>
      <point x="499" y="700" type="line"/>
      <point x="499" y="441" type="line"/>
      <point x="240" y="441" type="line"/>
    </contour>
  </outline>
</glyph>
<glyph name="I" format="2">
  <advance width="307"/>
  <unicode hex="0049"/>
  <outline>
    <contour>
      <point x="242" y="658" type="line"/>
      <point x="64" y="658" type="line"/>
      <point x="64" y="0" type="line"/>
      <point x="242" y="0" type="line"/>
    </contour>
  </outline>
</glyph>
<glyph name="J" format="2">
  <advance width="444"/>
  <unicode hex="004A"/>
  <outline>
    <contour>
      <point x="383" y="644" type="line"/>
      <point x="204" y="644" type="line"/>
      <point x="204" y="255" type="line" smooth="yes"/>
      <point x="204" y="174"/>
      <point x="172" y="145"/>
      <point x="117" y="145" type="curve"/>
      <point x="-15" y="145" type="line"/>
      <point x="-15" y="-26" type="line"/>
      <point x="134" y="-26" type="line"/>
      <point x="284" y="-26"/>
      <point x="383" y="60"/>
      <point x="383" y="240" type="curve" smooth="yes"/>
    </contour>
  </outline>
</glyph>
<glyph name="K" format="2">
  <advance width="694"/>
  <unicode hex="004B"/>
  <outline>
    <contour>
      <point x="479" y="0" type="line"/>
      <point x="698" y="0" type="line"/>
      <point x="439" y="337" type="line"/>
      <point x="677" y="658" type="line"/>
      <point x="460" y="658" type="line"/>
      <point x="294" y="411" type="line"/>
      <point x="242" y="411" type="line"/>
      <point x="242" y="658" type="line"/>
      <point x="64" y="658" type="line"/>
      <point x="64" y="0" type="line"/>
      <point x="242" y="0" type="line"/>
      <point x="242" y="252" type="line"/>
      <point x="293" y="252" type="line"/>
    </contour>
  </outline>
</glyph>
<glyph name="L" format="2">
  <advance width="571"/>
  <unicode hex="004C"/>
  <outline>
    <contour>
      <point x="558" y="165" type="line"/>
      <point x="241" y="165" type="line"/>
      <point x="241" y="658" type="line"/>
      <point x="62" y="658" type="line"/>
      <point x="62" y="0" type="line"/>
      <point x="558" y="0" type="line"/>
    </contour>
  </outline>
</glyph>
<glyph name="M" format="2">
  <advance width="820"/>
  <unicode hex="004D"/>
  <outline>
    <contour>
      <point x="790" y="658" type="line"/>
      <point x="543" y="658" type="line"/>
      <point x="411" y="262" type="line"/>
      <point x="279" y="658" type="line"/>
      <point x="31" y="658" type="line"/>
      <point x="31" y="0" type="line"/>
      <point x="210" y="0" type="line"/>
      <point x="210" y="412" type="line"/>
      <point x="316" y="61" type="line"/>
      <point x="506" y="61" type="line"/>
      <point x="612" y="412" type="line"/>
      <point x="612" y="0" type="line"/>
      <point x="790" y="0" type="line"/>
    </contour>
  </outline>
</glyph>
<glyph name="N" format="2">
  <advance width="740"/>
  <unicode hex="004E"/>
  <outline>
    <contour>
      <point x="682" y="658" type="line"/>
      <point x="503" y="658" type="line"/>
      <point x="503" y="288" type="line"/>
      <point x="232" y="658" type="line"/>
      <point x="58" y="658" type="line"/>
      <point x="58" y="0" type="line"/>
      <point x="237" y="0" type="line"/>
      <point x="237" y="370" type="line"/>
      <point x="508" y="0" type="line"/>
      <point x="682" y="0" type="line"/>
    </contour>
  </outline>
</glyph>
<glyph name="O" format="2">
  <advance width="790"/>
  <unicode hex="004F"/>
  <outline>
    <contour>
      <point x="395" y="700" type="curve" smooth="yes"/>
      <point x="179" y="700"/>
      <point x="25" y="546"/>
      <point x="25" y="337" type="curve" smooth="yes"/>
      <point x="25" y="128"/>
      <point x="179" y="-26"/>
      <point x="395" y="-26" type="curve" smooth="yes"/>
      <point x="612" y="-26"/>
      <point x="765" y="128"/>
      <point x="765" y="337" type="curve" smooth="yes"/>
      <point x="765" y="546"/>
      <point x="612" y="700"/>
    </contour>
    <contour>
      <point x="395" y="518" type="curve" smooth="yes"/>
      <point x="497" y="518"/>
      <point x="568" y="444"/>
      <point x="568" y="337" type="curve" smooth="yes"/>
      <point x="568" y="230"/>
      <point x="497" y="156"/>
      <point x="395" y="156" type="curve" smooth="yes"/>
      <point x="293" y="156"/>
      <point x="223" y="230"/>
      <point x="223" y="337" type="curve" smooth="yes"/>
      <point x="223" y="444"/>
      <point x="293" y="518"/>
    </contour>
  </outline>
</glyph>
<glyph name="P" format="2">
  <advance width="623"/>
  <unicode hex="0050"/>
  <outline>
    <contour>
      <point x="357" y="207" type="line" smooth="yes"/>
      <point x="522" y="207"/>
      <point x="610" y="298"/>
      <point x="610" y="431" type="curve" smooth="yes"/>
      <point x="610" y="566"/>
      <point x="522" y="658"/>
      <point x="355" y="658" type="curve" smooth="yes"/>
      <point x="62" y="658" type="line"/>
      <point x="62" y="0" type="line"/>
      <point x="240" y="0" type="line"/>
      <point x="240" y="207" type="line"/>
    </contour>
    <contour>
      <point x="353" y="498" type="line" smooth="yes"/>
      <point x="397" y="498"/>
      <point x="430" y="473"/>
      <point x="430" y="431" type="curve" smooth="yes"/>
      <point x="430" y="388"/>
      <point x="397" y="364"/>
      <point x="353" y="364" type="curve" smooth="yes"/>
      <point x="240" y="364" type="line"/>
      <point x="240" y="498" type="line"/>
    </contour>
  </outline>
</glyph>
<glyph name="Q" format="2">
  <advance width="746"/>
  <unicode hex="0051"/>
  <outline>
    <contour>
      <point x="394" y="656" type="curve" smooth="yes"/>
      <point x="190" y="656"/>
      <point x="46" y="512"/>
      <point x="46" y="315" type="curve" smooth="yes"/>
      <point x="46" y="119"/>
      <point x="190" y="-26"/>
      <point x="394" y="-26" type="curve" smooth="yes"/>
      <point x="598" y="-26"/>
      <point x="742" y="119"/>
      <point x="742" y="315" type="curve" smooth="yes"/>
      <point x="742" y="512"/>
      <point x="598" y="656"/>
    </contour>
    <contour>
      <point x="394" y="485" type="curve" smooth="yes"/>
      <point x="490" y="485"/>
      <point x="556" y="416"/>
      <point x="556" y="315" type="curve" smooth="yes"/>
      <point x="556" y="215"/>
      <point x="490" y="145"/>
      <point x="394" y="145" type="curve" smooth="yes"/>
      <point x="298" y="145"/>
      <point x="232" y="215"/>
      <point x="232" y="315" type="curve" smooth="yes"/>
      <point x="232" y="416"/>
      <point x="298" y="485"/>
    </contour>
    <contour>
      <point x="312" y="-13" type="line"/>
      <point x="312" y="-165" type="line"/>
      <point x="476" y="-165" type="line"/>
      <point x="476" y="-13" type="line"/>
    </contour>
  </outline>
</glyph>
<glyph name="R" format="2">
  <advance width="668"/>
  <unicode hex="0052"/>
  <outline>
    <contour>
      <point x="362" y="700" type="curve" smooth="yes"/>
      <point x="50" y="700" type="line"/>
      <point x="50" y="0" type="line"/>
      <point x="240" y="0" type="line"/>
      <point x="240" y="249" type="line"/>
      <point x="250" y="249" type="line"/>
      <point x="419" y="0" type="line"/>
      <point x="643" y="0" type="line"/>
      <point x="452" y="257" type="line"/>
      <point x="571" y="282"/>
      <point x="633" y="359"/>
      <point x="633" y="467" type="curve" smooth="yes"/>
      <point x="633" y="608"/>
      <point x="540" y="700"/>
    </contour>
    <contour>
      <point x="360" y="530" type="line" smooth="yes"/>
      <point x="407" y="530"/>
      <point x="441" y="510"/>
      <point x="441" y="467" type="curve" smooth="yes"/>
      <point x="441" y="425"/>
      <point x="407" y="405"/>
      <point x="360" y="405" type="curve" smooth="yes"/>
      <point x="240" y="405" type="line"/>
      <point x="240" y="530" type="line"/>
    </contour>
  </outline>
</glyph>
<glyph name="S" format="2">
  <advance width="483"/>
  <unicode hex="0053"/>
  <outline>
    <contour>
      <point x="212" y="351" type="line"/>
      <point x="212" y="301" type="line"/>
      <point x="285" y="301" type="line" smooth="yes"/>
      <point x="370" y="301"/>
      <point x="406" y="246"/>
      <point x="406" y="176" type="curve" smooth="yes"/>
      <point x="406" y="105"/>
      <point x="323" y="51"/>
      <point x="285" y="51" type="curve" smooth="yes"/>
      <point x="24" y="51" type="line"/>
      <point x="24" y="0" type="line"/>
      <point x="288" y="0" type="line" smooth="yes"/>
      <point x="375" y="0"/>
      <point x="461" y="76"/>
      <point x="461" y="176" type="curve" smooth="yes"/>
      <point x="461" y="276"/>
      <point x="399" y="351"/>
      <point x="288" y="351" type="curve" smooth="yes"/>
    </contour>
    <contour>
      <point x="298" y="302" type="line"/>
      <point x="298" y="352" type="line"/>
      <point x="201" y="352" type="line" smooth="yes"/>
      <point x="116" y="352"/>
      <point x="80" y="409"/>
      <point x="80" y="478" type="curve" smooth="yes"/>
      <point x="80" y="549"/>
      <point x="116" y="603"/>
      <point x="201" y="603" type="curve" smooth="yes"/>
      <point x="432" y="603" type="line"/>
      <point x="432" y="653" type="line"/>
      <point x="198" y="653" type="line" smooth="yes"/>
      <point x="87" y="653"/>
      <point x="25" y="578"/>
      <point x="25" y="478" type="curve" smooth="yes"/>
      <point x="25" y="378"/>
      <point x="87" y="302"/>
      <point x="198" y="302" type="curve" smooth="yes"/>
    </contour>
  </outline>
</glyph>
<glyph name="T" format="2">
  <advance width="628"/>
  <unicode hex="0054"/>
  <outline>
    <contour>
      <point x="608" y="700" type="line"/>
      <point x="20" y="700" type="line"/>
      <point x="20" y="525" type="line"/>
      <point x="219" y="525" type="line"/>
      <point x="219" y="0" type="line"/>
      <point x="409" y="0" type="line"/>
      <point x="409" y="525" type="line"/>
      <point x="608" y="525" type="line"/>
    </contour>
  </outline>
</glyph>
<glyph name="U" format="2">
  <advance width="636"/>
  <unicode hex="0055"/>
  <outline>
    <contour>
      <point x="628" y="700" type="line"/>
      <point x="438" y="700" type="line"/>
      <point x="438" y="291" type="line" smooth="yes"/>
      <point x="438" y="211"/>
      <point x="392" y="169"/>
      <point x="318" y="169" type="curve" smooth="yes"/>
      <point x="245" y="169"/>
      <point x="199" y="211"/>
      <point x="199" y="291" type="curve" smooth="yes"/>
      <point x="199" y="700" type="line"/>
      <point x="8" y="700" type="line"/>
      <point x="8" y="286" type="line" smooth="yes"/>
      <point x="8" y="95"/>
      <point x="117" y="-13"/>
      <point x="318" y="-13" type="curve" smooth="yes"/>
      <point x="519" y="-13"/>
      <point x="628" y="95"/>
      <point x="628" y="286" type="curve" smooth="yes"/>
    </contour>
  </outline>
</glyph>
<glyph name="V" format="2">
  <advance width="744"/>
  <unicode hex="0056"/>
  <outline>
    <contour>
      <point x="739" y="700" type="line"/>
      <point x="541" y="700" type="line"/>
      <point x="374" y="199" type="line"/>
      <point x="207" y="700" type="line"/>
      <point x="5" y="700" type="line"/>
      <point x="260" y="0" type="line"/>
      <point x="484" y="0" type="line"/>
    </contour>
  </outline>
</glyph>
<glyph name="W" format="2">
  <advance width="1014"/>
  <unicode hex="0057"/>
  <outline>
    <contour>
      <point x="1016" y="658" type="line"/>
      <point x="834" y="658" type="line"/>
      <point x="722" y="216" type="line"/>
      <point x="603" y="658" type="line"/>
      <point x="413" y="658" type="line"/>
      <point x="295" y="217" type="line"/>
      <point x="182" y="658" type="line"/>
      <point x="-2" y="658" type="line"/>
      <point x="186" y="0" type="line"/>
      <point x="397" y="0" type="line"/>
      <point x="507" y="385" type="line"/>
      <point x="617" y="0" type="line"/>
      <point x="828" y="0" type="line"/>
    </contour>
  </outline>
</glyph>
<glyph name="X" format="2">
  <advance width="683"/>
  <unicode hex="0058"/>
  <outline>
    <contour>
      <point x="678" y="700" type="line"/>
      <point x="464" y="700" type="line"/>
      <point x="342" y="493" type="line"/>
      <point x="220" y="700" type="line"/>
      <point x="5" y="700" type="line"/>
      <point x="226" y="352" type="line"/>
      <point x="5" y="0" type="line"/>
      <point x="218" y="0" type="line"/>
      <point x="340" y="208" type="line"/>
      <point x="463" y="0" type="line"/>
      <point x="678" y="0" type="line"/>
      <point x="456" y="353" type="line"/>
    </contour>
  </outline>
</glyph>
<glyph name="Y" format="2">
  <advance width="654"/>
  <unicode hex="0059"/>
  <outline>
    <contour>
      <point x="662" y="658" type="line"/>
      <point x="463" y="658" type="line"/>
      <point x="330" y="409" type="line"/>
      <point x="197" y="658" type="line"/>
      <point x="-8" y="658" type="line"/>
      <point x="241" y="247" type="line"/>
      <point x="241" y="0" type="line"/>
      <point x="419" y="0" type="line"/>
      <point x="419" y="249" type="line"/>
    </contour>
  </outline>
</glyph>
<glyph name="Z" format="2">
  <advance width="550"/>
  <unicode hex="005A"/>
  <outline>
    <contour>
      <point x="548" y="658" type="line"/>
      <point x="2" y="658" type="line"/>
      <point x="2" y="499" type="line"/>
      <point x="310" y="499" type="line"/>
      <point x="2" y="140" type="line"/>
      <point x="2" y="0" type="line"/>
      <point x="548" y="0" type="line"/>
      <point x="548" y="159" type="line"/>
      <point x="240" y="159" type="line"/>
      <point x="548" y="518" type="line"/>
    </contour>
  </outline>
</glyph>
<glyph name="a" format="2">
  <advance width="634"/>
  <unicode hex="0061"/>
  <outline>
    <contour>
      <point x="532" y="466" type="line"/>
      <point x="371" y="466" type="line"/>
      <point x="371" y="424" type="line"/>
      <point x="343" y="456"/>
      <point x="303" y="479"/>
      <point x="244" y="479" type="curve" smooth="yes"/>
      <point x="119" y="479"/>
      <point x="32" y="368"/>
      <point x="32" y="234" type="curve" smooth="yes"/>
      <point x="32" y="98"/>
      <point x="129" y="-12"/>
      <point x="254" y="-12" type="curve" smooth="yes"/>
      <point x="350" y="-12"/>
      <point x="416" y="44"/>
      <point x="429" y="79" type="curve"/>
      <point x="428" y="112" type="line"/>
      <point x="532" y="110" type="line"/>
    </contour>
    <contour>
      <point x="287" y="323" type="curve" smooth="yes"/>
      <point x="335" y="323"/>
      <point x="370" y="286"/>
      <point x="370" y="233" type="curve" smooth="yes"/>
      <point x="370" y="181"/>
      <point x="335" y="144"/>
      <point x="287" y="144" type="curve" smooth="yes"/>
      <point x="239" y="144"/>
      <point x="204" y="181"/>
      <point x="204" y="233" type="curve" smooth="yes"/>
      <point x="204" y="286"/>
      <point x="239" y="323"/>
    </contour>
    <contour>
      <point x="429" y="79" type="move"/>
      <point x="439" y="43"/>
      <point x="492" y="-11"/>
      <point x="562" y="-11" type="curve" smooth="yes"/>
      <point x="583" y="-11" type="line"/>
      <point x="583" y="139" type="line"/>
      <point x="576" y="139" type="line" smooth="yes"/>
      <point x="530" y="139"/>
      <point x="531" y="172"/>
      <point x="531" y="216" type="curve" smooth="yes"/>
      <point x="531" y="238" type="line"/>
      <point x="371" y="238" type="line"/>
    </contour>
  </outline>
</glyph>
<glyph name="b" format="2">
  <advance width="556"/>
  <unicode hex="0062"/>
  <outline>
    <contour>
      <point x="288" y="-10" type="curve" smooth="yes"/>
      <point x="408" y="-10"/>
      <point x="512" y="88"/>
      <point x="512" y="208" type="curve" smooth="yes"/>
      <point x="512" y="338"/>
      <point x="424" y="426"/>
      <point x="298" y="426" type="curve" smooth="yes"/>
      <point x="253" y="426"/>
      <point x="228" y="417"/>
      <point x="206" y="400" type="curve"/>
      <point x="206" y="728" type="line"/>
      <point x="64" y="728" type="line"/>
      <point x="64" y="208" type="line" smooth="yes"/>
      <point x="64" y="78"/>
      <point x="158" y="-10"/>
    </contour>
    <contour>
      <point x="285" y="136" type="curve" smooth="yes"/>
      <point x="244" y="136"/>
      <point x="211" y="171"/>
      <point x="211" y="213" type="curve" smooth="yes"/>
      <point x="211" y="258"/>
      <point x="244" y="289"/>
      <point x="285" y="289" type="curve" smooth="yes"/>
      <point x="333" y="289"/>
      <point x="362" y="254"/>
      <point x="362" y="213" type="curve" smooth="yes"/>
      <point x="362" y="171"/>
      <point x="331" y="136"/>
    </contour>
  </outline>
</glyph>
<glyph name="c" format="2">
  <advance width="456"/>
  <unicode hex="0063"/>
  <outline>
    <contour>
      <point x="284" y="491" type="line"/>
      <point x="135" y="491"/>
      <point x="30" y="389"/>
      <point x="30" y="245" type="curve" smooth="yes"/>
      <point x="30" y="102"/>
      <point x="135" y="0"/>
      <point x="284" y="0" type="curve"/>
      <point x="408" y="0" type="line"/>
      <point x="408" y="156" type="line"/>
      <point x="279" y="156" type="line"/>
      <point x="238" y="156"/>
      <point x="201" y="187"/>
      <point x="201" y="245" type="curve" smooth="yes"/>
      <point x="201" y="304"/>
      <point x="239" y="335"/>
      <point x="280" y="335" type="curve"/>
      <point x="406" y="335" type="line"/>
      <point x="406" y="491" type="line"/>
    </contour>
  </outline>
</glyph>
<glyph name="d" format="2">
  <advance width="556"/>
  <unicode hex="0064"/>
  <outline>
    <contour>
      <point x="268" y="-10" type="curve" smooth="yes"/>
      <point x="398" y="-10"/>
      <point x="492" y="78"/>
      <point x="492" y="208" type="curve" smooth="yes"/>
      <point x="492" y="728" type="line"/>
      <point x="350" y="728" type="line"/>
      <point x="350" y="400" type="line"/>
      <point x="328" y="417"/>
      <point x="303" y="426"/>
      <point x="258" y="426" type="curve" smooth="yes"/>
      <point x="132" y="426"/>
      <point x="44" y="338"/>
      <point x="44" y="208" type="curve" smooth="yes"/>
      <point x="44" y="88"/>
      <point x="148" y="-10"/>
    </contour>
    <contour>
      <point x="271" y="136" type="curve" smooth="yes"/>
      <point x="225" y="136"/>
      <point x="194" y="171"/>
      <point x="194" y="213" type="curve" smooth="yes"/>
      <point x="194" y="254"/>
      <point x="223" y="289"/>
      <point x="271" y="289" type="curve" smooth="yes"/>
      <point x="312" y="289"/>
      <point x="345" y="258"/>
      <point x="345" y="213" type="curve" smooth="yes"/>
      <point x="345" y="171"/>
      <point x="312" y="136"/>
    </contour>
  </outline>
</glyph>
<glyph name="e" format="2">
  <advance width="547"/>
  <unicode hex="0065"/>
  <outline>
    <contour>
      <point x="276" y="485" type="curve" smooth="yes"/>
      <point x="133" y="485"/>
      <point x="34" y="383"/>
      <point x="34" y="235" type="curve" smooth="yes"/>
      <point x="34" y="91"/>
      <point x="133" y="-6"/>
      <point x="282" y="-6" type="curve" smooth="yes"/>
      <point x="375" y="-6"/>
      <point x="448" y="26"/>
      <point x="493" y="75" type="curve"/>
      <point x="378" y="171" type="line"/>
      <point x="353" y="146"/>
      <point x="321" y="133"/>
      <point x="290" y="133" type="curve" smooth="yes"/>
      <point x="246" y="133"/>
      <point x="218" y="152"/>
      <point x="207" y="190" type="curve"/>
      <point x="511" y="190" type="line"/>
      <point x="513" y="199"/>
      <point x="514" y="223"/>
      <point x="514" y="239" type="curve" smooth="yes"/>
      <point x="514" y="385"/>
      <point x="417" y="485"/>
    </contour>
    <contour>
      <point x="277" y="344" type="curve" smooth="yes"/>
      <point x="312" y="344"/>
      <point x="335" y="327"/>
      <point x="347" y="291" type="curve"/>
      <point x="207" y="291" type="line"/>
      <point x="218" y="327"/>
      <point x="241" y="344"/>
    </contour>
  </outline>
</glyph>
<glyph name="f" format="2">
  <advance width="390"/>
  <unicode hex="0066"/>
  <outline>
    <contour>
      <point x="366" y="466" type="line"/>
      <point x="247" y="466" type="line"/>
      <point x="247" y="480" type="line" smooth="yes"/>
      <point x="247" y="518"/>
      <point x="261" y="533"/>
      <point x="291" y="533" type="curve"/>
      <point x="378" y="533" type="line"/>
      <point x="378" y="689" type="line"/>
      <point x="266" y="689" type="line"/>
      <point x="157" y="689"/>
      <point x="80" y="623"/>
      <point x="80" y="484" type="curve" smooth="yes"/>
      <point x="80" y="466" type="line"/>
      <point x="5" y="466" type="line"/>
      <point x="5" y="318" type="line"/>
      <point x="80" y="318" type="line"/>
      <point x="80" y="0" type="line"/>
      <point x="247" y="0" type="line"/>
      <point x="247" y="318" type="line"/>
      <point x="366" y="318" type="line"/>
    </contour>
  </outline>
</glyph>
<glyph name="g" format="2">
  <advance width="623"/>
  <unicode hex="0067"/>
  <outline>
    <contour>
      <point x="245" y="451" type="curve" smooth="yes"/>
      <point x="119" y="451"/>
      <point x="33" y="347"/>
      <point x="33" y="218" type="curve" smooth="yes"/>
      <point x="33" y="89"/>
      <point x="119" y="-15"/>
      <point x="245" y="-15" type="curve" smooth="yes"/>
      <point x="301" y="-15"/>
      <point x="340" y="5"/>
      <point x="367" y="35" type="curve"/>
      <point x="367" y="14" type="line" smooth="yes"/>
      <point x="367" y="-54"/>
      <point x="308" y="-80"/>
      <point x="261" y="-80" type="curve"/>
      <point x="116" y="-80" type="line"/>
      <point x="116" y="-225" type="line"/>
      <point x="276" y="-225" type="line"/>
      <point x="427" y="-225"/>
      <point x="530" y="-134"/>
      <point x="530" y="22" type="curve" smooth="yes"/>
      <point x="530" y="368" type="line"/>
      <point x="407" y="366" type="line"/>
      <point x="400" y="390" type="line"/>
      <point x="373" y="422"/>
      <point x="302" y="451"/>
    </contour>
    <contour>
      <point x="287" y="299" type="curve" smooth="yes"/>
      <point x="333" y="299"/>
      <point x="365" y="265"/>
      <point x="365" y="218" type="curve" smooth="yes"/>
      <point x="365" y="170"/>
      <point x="333" y="136"/>
      <point x="287" y="136" type="curve" smooth="yes"/>
      <point x="241" y="136"/>
      <point x="206" y="170"/>
      <point x="206" y="218" type="curve" smooth="yes"/>
      <point x="206" y="265"/>
      <point x="241" y="299"/>
    </contour>
    <contour>
      <point x="486" y="11" type="line"/>
      <point x="486" y="223" type="line" smooth="yes"/>
      <point x="486" y="267"/>
      <point x="515" y="300"/>
      <point x="561" y="300" type="curve" smooth="yes"/>
      <point x="568" y="300" type="line"/>
      <point x="568" y="450" type="line"/>
      <point x="547" y="450" type="line" smooth="yes"/>
      <point x="477" y="450"/>
      <point x="419" y="416"/>
      <point x="382" y="369" type="curve"/>
    </contour>
  </outline>
</glyph>
<glyph name="h" format="2">
  <advance width="551"/>
  <unicode hex="0068"/>
  <outline>
    <contour>
      <point x="217" y="678" type="line"/>
      <point x="50" y="678" type="line"/>
      <point x="50" y="0" type="line"/>
      <point x="217" y="0" type="line"/>
      <point x="217" y="250" type="line" smooth="yes"/>
      <point x="217" y="301"/>
      <point x="243" y="322"/>
      <point x="276" y="322" type="curve" smooth="yes"/>
      <point x="312" y="322"/>
      <point x="334" y="297"/>
      <point x="334" y="251" type="curve" smooth="yes"/>
      <point x="334" y="0" type="line"/>
      <point x="502" y="0" type="line"/>
      <point x="502" y="303" type="line" smooth="yes"/>
      <point x="502" y="410"/>
      <point x="432" y="478"/>
      <point x="335" y="478" type="curve" smooth="yes"/>
      <point x="283" y="478"/>
      <point x="244" y="462"/>
      <point x="217" y="429" type="curve"/>
    </contour>
  </outline>
</glyph>
<glyph name="i" format="2">
  <advance width="300"/>
  <unicode hex="0069"/>
  <outline>
    <contour>
      <point x="234" y="466" type="line"/>
      <point x="67" y="466" type="line"/>
      <point x="67" y="0" type="line"/>
      <point x="234" y="0" type="line"/>
    </contour>
    <contour>
      <point x="150" y="698" type="curve" smooth="yes"/>
      <point x="96" y="698"/>
      <point x="54" y="656"/>
      <point x="54" y="602" type="curve" smooth="yes"/>
      <point x="54" y="548"/>
      <point x="96" y="506"/>
      <point x="150" y="506" type="curve" smooth="yes"/>
      <point x="204" y="506"/>
      <point x="246" y="548"/>
      <point x="246" y="602" type="curve" smooth="yes"/>
      <point x="246" y="656"/>
      <point x="204" y="698"/>
    </contour>
  </outline>
</glyph>
<glyph name="j" format="2">
  <advance width="389"/>
  <unicode hex="006A"/>
  <outline>
    <contour>
      <point x="325" y="466" type="line"/>
      <point x="157" y="466" type="line"/>
      <point x="157" y="2" type="line" smooth="yes"/>
      <point x="157" y="-25"/>
      <point x="126" y="-44"/>
      <point x="111" y="-44" type="curve"/>
      <point x="54" y="-44" type="line"/>
      <point x="54" y="-200" type="line"/>
      <point x="165" y="-200" type="line"/>
      <point x="262" y="-200"/>
      <point x="325" y="-133"/>
      <point x="325" y="-20" type="curve" smooth="yes"/>
    </contour>
    <contour>
      <point x="239" y="698" type="curve" smooth="yes"/>
      <point x="185" y="698"/>
      <point x="144" y="656"/>
      <point x="144" y="602" type="curve" smooth="yes"/>
      <point x="144" y="548"/>
      <point x="185" y="506"/>
      <point x="239" y="506" type="curve" smooth="yes"/>
      <point x="293" y="506"/>
      <point x="335" y="548"/>
      <point x="335" y="602" type="curve" smooth="yes"/>
      <point x="335" y="656"/>
      <point x="293" y="698"/>
    </contour>
  </outline>
</glyph>
<glyph name="k" format="2">
  <advance width="538"/>
  <unicode hex="006B"/>
  <outline>
    <contour>
      <point x="42" y="0" type="line"/>
      <point x="184" y="0" type="line"/>
      <point x="184" y="116" type="line"/>
      <point x="218" y="145" type="line"/>
      <point x="312" y="0" type="line"/>
      <point x="498" y="0" type="line"/>
      <point x="319" y="237" type="line"/>
      <point x="506" y="416" type="line"/>
      <point x="328" y="416" type="line"/>
      <point x="184" y="290" type="line"/>
      <point x="184" y="728" type="line"/>
      <point x="42" y="728" type="line"/>
    </contour>
  </outline>
</glyph>
<glyph name="m" format="2">
  <advance width="929"/>
  <unicode hex="006D"/>
  <outline>
    <contour>
      <point x="690" y="478" type="curve" smooth="yes"/>
      <point x="616" y="478"/>
      <point x="560" y="454"/>
      <point x="531" y="407" type="curve"/>
      <point x="502" y="452"/>
      <point x="443" y="478"/>
      <point x="383" y="478" type="curve" smooth="yes"/>
      <point x="315" y="478"/>
      <point x="239" y="437"/>
      <point x="212" y="397" type="curve"/>
      <point x="138" y="386" type="line"/>
      <point x="138" y="0" type="line"/>
      <point x="305" y="0" type="line"/>
      <point x="305" y="250" type="line" smooth="yes"/>
      <point x="305" y="301"/>
      <point x="331" y="322"/>
      <point x="364" y="322" type="curve" smooth="yes"/>
      <point x="400" y="322"/>
      <point x="422" y="297"/>
      <point x="422" y="251" type="curve" smooth="yes"/>
      <point x="422" y="0" type="line"/>
      <point x="590" y="0" type="line"/>
      <point x="590" y="250" type="line" smooth="yes"/>
      <point x="590" y="301"/>
      <point x="616" y="322"/>
      <point x="648" y="322" type="curve" smooth="yes"/>
      <point x="685" y="322"/>
      <point x="707" y="297"/>
      <point x="707" y="251" type="curve" smooth="yes"/>
      <point x="707" y="0" type="line"/>
      <point x="874" y="0" type="line"/>
      <point x="874" y="303" type="line" smooth="yes"/>
      <point x="874" y="410"/>
      <point x="798" y="478"/>
    </contour>
    <contour>
      <point x="222" y="381" type="move"/>
      <point x="225" y="365" type="line"/>
    </contour>
    <contour>
      <point x="222" y="381" type="line"/>
      <point x="185" y="428"/>
      <point x="147" y="462"/>
      <point x="77" y="462" type="curve" smooth="yes"/>
      <point x="56" y="462" type="line"/>
      <point x="56" y="312" type="line"/>
      <point x="63" y="312" type="line" smooth="yes"/>
      <point x="109" y="312"/>
      <point x="138" y="279"/>
      <point x="138" y="235" type="curve" smooth="yes"/>
      <point x="138" y="233" type="line"/>
      <point x="249" y="233" type="line"/>
    </contour>
  </outline>
</glyph>
<glyph name="n" format="2">
  <advance width="610"/>
  <unicode hex="006E"/>
  <outline>
    <contour>
      <point x="258" y="144" type="line" smooth="yes"/>
      <point x="258" y="189"/>
      <point x="280" y="222"/>
      <point x="324" y="222" type="curve" smooth="yes"/>
      <point x="369" y="222"/>
      <point x="391" y="189"/>
      <point x="391" y="144" type="curve" smooth="yes"/>
      <point x="391" y="0" type="line"/>
      <point x="534" y="0" type="line"/>
      <point x="534" y="208" type="line" smooth="yes"/>
      <point x="534" y="338"/>
      <point x="457" y="426"/>
      <point x="327" y="426" type="curve" smooth="yes"/>
      <point x="267" y="426"/>
      <point x="211" y="398"/>
      <point x="172" y="356" type="curve"/>
      <point x="148" y="384"/>
      <point x="116" y="416"/>
      <point x="74" y="416" type="curve" smooth="yes"/>
      <point x="60" y="416" type="line"/>
      <point x="60" y="252" type="line"/>
      <point x="64" y="252" type="line" smooth="yes"/>
      <point x="96" y="252"/>
      <point x="116" y="230"/>
      <point x="116" y="200" type="curve" smooth="yes"/>
      <point x="116" y="0" type="line"/>
      <point x="258" y="0" type="line"/>
    </contour>
  </outline>
</glyph>
<glyph name="o" format="2">
  <advance width="536"/>
  <unicode hex="006F"/>
  <outline>
    <contour>
      <point x="268" y="-10" type="curve" smooth="yes"/>
      <point x="388" y="-10"/>
      <point x="492" y="88"/>
      <point x="492" y="208" type="curve" smooth="yes"/>
      <point x="492" y="338"/>
      <point x="398" y="426"/>
      <point x="268" y="426" type="curve" smooth="yes"/>
      <point x="148" y="426"/>
      <point x="44" y="328"/>
      <point x="44" y="208" type="curve" smooth="yes"/>
      <point x="44" y="78"/>
      <point x="138" y="-10"/>
    </contour>
    <contour>
      <point x="268" y="131" type="curve" smooth="yes"/>
      <point x="227" y="131"/>
      <point x="194" y="166"/>
      <point x="194" y="208" type="curve" smooth="yes"/>
      <point x="194" y="253"/>
      <point x="227" y="284"/>
      <point x="268" y="284" type="curve" smooth="yes"/>
      <point x="316" y="284"/>
      <point x="345" y="249"/>
      <point x="345" y="208" type="curve" smooth="yes"/>
      <point x="345" y="166"/>
      <point x="314" y="131"/>
    </contour>
  </outline>
</glyph>
<glyph name="p" format="2">
  <advance width="685"/>
  <unicode hex="0070"/>
  <outline>
    <contour>
      <point x="420" y="-27" type="curve" smooth="yes"/>
      <point x="545" y="-27"/>
      <point x="633" y="84"/>
      <point x="633" y="218" type="curve" smooth="yes"/>
      <point x="633" y="354"/>
      <point x="545" y="464"/>
      <point x="421" y="464" type="curve" smooth="yes"/>
      <point x="297" y="464"/>
      <point x="262" y="423"/>
      <point x="237" y="375" type="curve"/>
      <point x="238" y="333" type="line"/>
      <point x="133" y="333" type="line"/>
      <point x="133" y="-225" type="line"/>
      <point x="301" y="-225" type="line"/>
      <point x="301" y="20" type="line"/>
      <point x="328" y="-8"/>
      <point x="367" y="-27"/>
    </contour>
    <contour>
      <point x="387" y="129" type="curve" smooth="yes"/>
      <point x="339" y="129"/>
      <point x="305" y="166"/>
      <point x="305" y="219" type="curve" smooth="yes"/>
      <point x="305" y="271"/>
      <point x="339" y="308"/>
      <point x="387" y="308" type="curve" smooth="yes"/>
      <point x="435" y="308"/>
      <point x="470" y="271"/>
      <point x="470" y="219" type="curve" smooth="yes"/>
      <point x="470" y="166"/>
      <point x="435" y="129"/>
    </contour>
    <contour>
      <point x="303" y="228" type="line"/>
      <point x="237" y="375" type="line"/>
      <point x="200" y="422"/>
      <point x="142" y="456"/>
      <point x="72" y="456" type="curve" smooth="yes"/>
      <point x="51" y="456" type="line"/>
      <point x="51" y="296" type="line"/>
      <point x="58" y="296" type="line" smooth="yes"/>
      <point x="104" y="296"/>
      <point x="133" y="263"/>
      <point x="133" y="219" type="curve" smooth="yes"/>
      <point x="133" y="218" type="line"/>
    </contour>
    <contour>
      <point x="303" y="154" type="move"/>
    </contour>
  </outline>
</glyph>
<glyph name="q" format="2">
  <advance width="665"/>
  <unicode hex="0071"/>
  <outline>
    <contour>
      <point x="245" y="-27" type="curve" smooth="yes"/>
      <point x="298" y="-27"/>
      <point x="337" y="-8"/>
      <point x="364" y="20" type="curve"/>
      <point x="364" y="-225" type="line"/>
      <point x="532" y="-225" type="line"/>
      <point x="532" y="333" type="line"/>
      <point x="427" y="333" type="line"/>
      <point x="428" y="375" type="line"/>
      <point x="403" y="423"/>
      <point x="368" y="464"/>
      <point x="244" y="464" type="curve" smooth="yes"/>
      <point x="120" y="464"/>
      <point x="32" y="354"/>
      <point x="32" y="218" type="curve" smooth="yes"/>
      <point x="32" y="84"/>
      <point x="120" y="-27"/>
    </contour>
    <contour>
      <point x="278" y="129" type="curve" smooth="yes"/>
      <point x="230" y="129"/>
      <point x="195" y="166"/>
      <point x="195" y="219" type="curve" smooth="yes"/>
      <point x="195" y="271"/>
      <point x="230" y="308"/>
      <point x="278" y="308" type="curve" smooth="yes"/>
      <point x="326" y="308"/>
      <point x="360" y="271"/>
      <point x="360" y="219" type="curve" smooth="yes"/>
      <point x="360" y="166"/>
      <point x="326" y="129"/>
    </contour>
    <contour>
      <point x="362" y="228" type="line"/>
      <point x="532" y="218" type="line"/>
      <point x="532" y="219" type="line" smooth="yes"/>
      <point x="532" y="263"/>
      <point x="561" y="296"/>
      <point x="607" y="296" type="curve" smooth="yes"/>
      <point x="614" y="296" type="line"/>
      <point x="614" y="456" type="line"/>
      <point x="593" y="456" type="line" smooth="yes"/>
      <point x="523" y="456"/>
      <point x="465" y="422"/>
      <point x="428" y="375" type="curve"/>
    </contour>
    <contour>
      <point x="362" y="154" type="move"/>
    </contour>
  </outline>
</glyph>
<glyph name="r" format="2">
  <advance width="288"/>
  <unicode hex="0072"/>
  <outline>
    <contour>
      <point x="34" y="0" type="line"/>
      <point x="176" y="0" type="line"/>
      <point x="176" y="220" type="line" smooth="yes"/>
      <point x="176" y="247"/>
      <point x="205" y="272"/>
      <point x="228" y="272" type="curve" smooth="yes"/>
      <point x="260" y="272" type="line"/>
      <point x="260" y="416" type="line"/>
      <point x="220" y="416" type="line" smooth="yes"/>
      <point x="114" y="416"/>
      <point x="34" y="344"/>
      <point x="34" y="260" type="curve" smooth="yes"/>
    </contour>
  </outline>
</glyph>
<glyph name="s" format="2">
  <advance width="456"/>
  <unicode hex="0073"/>
  <outline>
    <contour>
      <point x="56" y="0" type="line"/>
      <point x="197" y="0" type="line"/>
      <point x="264" y="0" type="line" smooth="yes"/>
      <point x="334" y="0"/>
      <point x="392" y="72"/>
      <point x="392" y="138" type="curve" smooth="yes"/>
      <point x="392" y="212"/>
      <point x="334" y="266"/>
      <point x="264" y="266" type="curve" smooth="yes"/>
      <point x="247" y="266" type="line"/>
      <point x="232" y="266" type="line" smooth="yes"/>
      <point x="212" y="266"/>
      <point x="198" y="280"/>
      <point x="198" y="300" type="curve" smooth="yes"/>
      <point x="198" y="318"/>
      <point x="214" y="332"/>
      <point x="232" y="332" type="curve" smooth="yes"/>
      <point x="247" y="332" type="line"/>
      <point x="340" y="332" type="line"/>
      <point x="340" y="436" type="line"/>
      <point x="197" y="436" type="line"/>
      <point x="172" y="436" type="line" smooth="yes"/>
      <point x="102" y="436"/>
      <point x="44" y="366"/>
      <point x="44" y="298" type="curve" smooth="yes"/>
      <point x="44" y="226"/>
      <point x="102" y="170"/>
      <point x="172" y="170" type="curve" smooth="yes"/>
      <point x="177" y="170" type="line"/>
      <point x="184" y="170" type="line" smooth="yes"/>
      <point x="204" y="170"/>
      <point x="218" y="156"/>
      <point x="218" y="138" type="curve" smooth="yes"/>
      <point x="218" y="118"/>
      <point x="204" y="104"/>
      <point x="184" y="104" type="curve" smooth="yes"/>
      <point x="177" y="104" type="line"/>
      <point x="56" y="104" type="line"/>
    </contour>
  </outline>
</glyph>
<glyph name="t" format="2">
  <advance width="359"/>
  <unicode hex="0074"/>
  <outline>
    <contour>
      <point x="273" y="0" type="curve" smooth="yes"/>
      <point x="311" y="0" type="line"/>
      <point x="311" y="144" type="line"/>
      <point x="281" y="144" type="line" smooth="yes"/>
      <point x="249" y="144"/>
      <point x="229" y="166"/>
      <point x="229" y="196" type="curve" smooth="yes"/>
      <point x="229" y="352" type="line"/>
      <point x="324" y="352" type="line"/>
      <point x="324" y="479" type="line"/>
      <point x="229" y="479" type="line"/>
      <point x="229" y="666" type="line"/>
      <point x="87" y="666" type="line"/>
      <point x="87" y="479" type="line"/>
      <point x="7" y="479" type="line"/>
      <point x="7" y="352" type="line"/>
      <point x="87" y="352" type="line"/>
      <point x="87" y="156" type="line" smooth="yes"/>
      <point x="87" y="66"/>
      <point x="181" y="0"/>
    </contour>
  </outline>
</glyph>
<glyph name="u" format="2">
  <advance width="553"/>
  <unicode hex="0075"/>
  <outline>
    <contour>
      <point x="505" y="452" type="line"/>
      <point x="338" y="452" type="line"/>
      <point x="338" y="201" type="line" smooth="yes"/>
      <point x="338" y="154"/>
      <point x="314" y="130"/>
      <point x="277" y="130" type="curve" smooth="yes"/>
      <point x="240" y="130"/>
      <point x="216" y="154"/>
      <point x="216" y="201" type="curve" smooth="yes"/>
      <point x="216" y="452" type="line"/>
      <point x="49" y="452" type="line"/>
      <point x="49" y="187" type="line" smooth="yes"/>
      <point x="49" y="42"/>
      <point x="147" y="-26"/>
      <point x="277" y="-26" type="curve" smooth="yes"/>
      <point x="407" y="-26"/>
      <point x="505" y="42"/>
      <point x="505" y="186" type="curve" smooth="yes"/>
    </contour>
  </outline>
</glyph>
<glyph name="v" format="2">
  <advance width="530"/>
  <unicode hex="0076"/>
  <outline>
    <contour>
      <point x="536" y="466" type="line"/>
      <point x="358" y="466" type="line"/>
      <point x="267" y="187" type="line"/>
      <point x="177" y="466" type="line"/>
      <point x="-6" y="466" type="line"/>
      <point x="172" y="0" type="line"/>
      <point x="361" y="0" type="line"/>
    </contour>
  </outline>
</glyph>
<glyph name="w" format="2">
  <advance width="718"/>
  <unicode hex="0077"/>
  <outline>
    <contour>
      <point x="298" y="416" type="line"/>
      <point x="427" y="416" type="line"/>
      <point x="512" y="188" type="line"/>
      <point x="575" y="416" type="line"/>
      <point x="706" y="416" type="line"/>
      <point x="572" y="0" type="line"/>
      <point x="453" y="0" type="line"/>
      <point x="360" y="239" type="line"/>
      <point x="269" y="0" type="line"/>
      <point x="147" y="0" type="line"/>
      <point x="12" y="416" type="line"/>
      <point x="148" y="416" type="line"/>
      <point x="213" y="188" type="line"/>
    </contour>
  </outline>
</glyph>
<glyph name="x" format="2">
  <advance width="543"/>
  <unicode hex="0078"/>
  <outline>
    <contour>
      <point x="540" y="466" type="line"/>
      <point x="349" y="466" type="line"/>
      <point x="275" y="343" type="line"/>
      <point x="200" y="466" type="line"/>
      <point x="6" y="466" type="line"/>
      <point x="162" y="235" type="line"/>
      <point x="0" y="0" type="line"/>
      <point x="192" y="0" type="line"/>
      <point x="269" y="122" type="line"/>
      <point x="350" y="0" type="line"/>
      <point x="542" y="0" type="line"/>
      <point x="382" y="233" type="line"/>
    </contour>
  </outline>
</glyph>
<glyph name="y" format="2">
  <advance width="466"/>
  <unicode hex="0079"/>
  <outline>
    <contour>
      <point x="321" y="416" type="line"/>
      <point x="321" y="250" type="line" smooth="yes"/>
      <point x="321" y="211"/>
      <point x="288" y="178"/>
      <point x="249" y="178" type="curve" smooth="yes"/>
      <point x="209" y="178"/>
      <point x="176" y="211"/>
      <point x="176" y="250" type="curve" smooth="yes"/>
      <point x="176" y="416" type="line"/>
      <point x="36" y="416" type="line"/>
      <point x="36" y="191" type="line" smooth="yes"/>
      <point x="36" y="76"/>
      <point x="138" y="-6"/>
      <point x="243" y="-6" type="curve" smooth="yes"/>
      <point x="282" y="-6"/>
      <point x="300" y="1"/>
      <point x="322" y="16" type="curve"/>
      <point x="322" y="13" type="line"/>
      <point x="461" y="-4" type="line"/>
      <point x="461" y="416" type="line"/>
    </contour>
    <contour>
      <point x="461" y="-4" type="line"/>
      <point x="461" y="-34" type="line"/>
      <point x="455" y="-113"/>
      <point x="360" y="-210"/>
      <point x="275" y="-210" type="qcurve"/>
      <point x="59" y="-210" type="line"/>
      <point x="59" y="-72" type="line"/>
      <point x="258" y="-72" type="line"/>
      <point x="297" y="-66"/>
      <point x="324" y="-22"/>
      <point x="322" y="15" type="qcurve"/>
      <point x="322" y="13" type="line"/>
    </contour>
  </outline>
</glyph>
<glyph name="z" format="2">
  <advance width="502"/>
  <unicode hex="007A"/>
  <outline>
    <contour>
      <point x="38" y="0" type="line"/>
      <point x="464" y="0" type="line"/>
      <point x="464" y="104" type="line"/>
      <point x="212" y="104" type="line"/>
      <point x="454" y="306" type="line"/>
      <point x="454" y="426" type="line"/>
      <point x="44" y="426" type="line"/>
      <point x="44" y="312" type="line"/>
      <point x="280" y="312" type="line"/>
      <point x="38" y="112" type="line"/>
    </contour>
  </outline>
</glyph>
